<svg width="265" height="77" viewBox="0 0 265 77" fill="none" xmlns="http://www.w3.org/2000/svg">
<path opacity="0.56" d="M61.3103 14.3331L42.6934 14.5589L47.3618 0.1881L47.4183 0L47.5876 0.16928L61.2915 14.3143L61.3103 14.3331Z" fill="#EFFBFF"/>
<path opacity="0.56" d="M69.9311 23.2495L61.8369 48.2479L52.6321 76.6133H27.7281C25.168 76.6133 23.3608 74.1305 24.1514 71.6851L31.7186 48.3607L40.9989 19.7319L66.4487 19.6191L69.9311 23.2495Z" fill="#EFFBFF"/>
<path opacity="0.56" d="M86.1763 39.1803L75.3337 73.6403C74.7691 75.4083 73.1313 76.6311 71.2677 76.6311H59.3711L74.8444 27.4805L86.1763 39.1803Z" fill="#EFFBFF"/>
<path opacity="0.56" d="M69.9313 23.2496L61.8371 48.248L31.7188 48.3798H30.4765L3.65233 48.5114C0.922871 48.5302 -0.84658 45.8404 0.414614 43.602L13.8926 19.9014L40.5283 19.7886H41.0179L66.4677 19.6758L69.9313 23.2496Z" fill="#EFFBFF"/>
<path opacity="0.56" d="M61.3101 14.3339L42.6931 14.5595H42.3354L16.8291 14.8793L23.4174 3.29238C24.4151 1.54306 26.354 0.433262 28.4999 0.414462L47.3427 0.169922H47.3615H47.5873L61.3101 14.3339Z" fill="#EFFBFF"/>
<path d="M122.201 59.7588V18.2344H130.16V59.7588H122.201ZM115.336 37.4182V30.4368H137.025V37.4182H115.336ZM154.822 60.3658C151.744 60.3658 149.01 59.7182 146.621 58.4232C144.231 57.0876 142.328 55.2664 140.91 52.9594C139.533 50.6526 138.844 48.0218 138.844 45.0674C138.844 42.1534 139.513 39.5632 140.849 37.2968C142.226 34.9898 144.089 33.1686 146.439 31.833C148.788 30.457 151.4 29.769 154.276 29.769C157.111 29.769 159.602 30.4166 161.748 31.7116C163.935 32.9662 165.636 34.7066 166.851 36.9326C168.107 39.118 168.735 41.607 168.735 44.3996C168.735 44.9258 168.694 45.4722 168.613 46.0388C168.573 46.5648 168.471 47.172 168.31 47.86L143.644 47.9206V41.9712L164.604 41.9106L161.384 44.3996C161.303 42.6594 160.979 41.2024 160.412 40.0286C159.885 38.855 159.095 37.9646 158.042 37.3574C157.03 36.71 155.774 36.3862 154.276 36.3862C152.696 36.3862 151.319 36.7504 150.145 37.4788C148.97 38.167 148.059 39.1584 147.41 40.4536C146.803 41.7082 146.499 43.2056 146.499 44.946C146.499 46.7268 146.823 48.285 147.471 49.6204C148.16 50.9156 149.132 51.9274 150.388 52.6558C151.643 53.344 153.101 53.688 154.762 53.688C156.26 53.688 157.617 53.445 158.832 52.9594C160.047 52.4332 161.1 51.6644 161.991 50.6526L166.669 55.327C165.252 56.9864 163.51 58.241 161.444 59.091C159.419 59.9408 157.212 60.3658 154.822 60.3658ZM187.691 60.3658C184.613 60.3658 181.879 59.7182 179.489 58.4232C177.099 57.0876 175.196 55.2664 173.778 52.9594C172.401 50.6526 171.713 48.0218 171.713 45.0674C171.713 42.1534 172.381 39.5632 173.718 37.2968C175.095 34.9898 176.958 33.1686 179.307 31.833C181.656 30.457 184.268 29.769 187.144 29.769C189.979 29.769 192.47 30.4166 194.617 31.7116C196.803 32.9662 198.505 34.7066 199.719 36.9326C200.976 39.118 201.603 41.607 201.603 44.3996C201.603 44.9258 201.563 45.4722 201.481 46.0388C201.441 46.5648 201.341 47.172 201.179 47.86L176.512 47.9206V41.9712L197.472 41.9106L194.252 44.3996C194.171 42.6594 193.847 41.2024 193.28 40.0286C192.753 38.855 191.964 37.9646 190.911 37.3574C189.898 36.71 188.642 36.3862 187.144 36.3862C185.564 36.3862 184.187 36.7504 183.013 37.4788C181.838 38.167 180.927 39.1584 180.279 40.4536C179.671 41.7082 179.368 43.2056 179.368 44.946C179.368 46.7268 179.692 48.285 180.34 49.6204C181.028 50.9156 182 51.9274 183.256 52.6558C184.511 53.344 185.969 53.688 187.63 53.688C189.129 53.688 190.485 53.445 191.701 52.9594C192.915 52.4332 193.969 51.6644 194.86 50.6526L199.537 55.327C198.12 56.9864 196.379 58.241 194.313 59.091C192.288 59.9408 190.08 60.3658 187.691 60.3658ZM222.807 60.3658C220.701 60.3658 218.798 59.9408 217.096 59.091C215.395 58.2006 214.038 57.0066 213.025 55.5092C212.013 54.0118 211.466 52.2916 211.386 50.349V39.968C211.466 38.0252 212.013 36.3052 213.025 34.8078C214.078 33.2698 215.435 32.0556 217.096 31.1652C218.798 30.2748 220.701 29.8296 222.807 29.8296C225.521 29.8296 227.95 30.4974 230.098 31.833C232.244 33.1686 233.925 34.9898 235.14 37.2968C236.395 39.6036 237.023 42.2142 237.023 45.1282C237.023 48.0016 236.395 50.5918 235.14 52.8988C233.925 55.2056 232.244 57.0268 230.098 58.3624C227.95 59.698 225.521 60.3658 222.807 60.3658ZM221.41 53.0202C222.869 53.0202 224.164 52.6964 225.298 52.0488C226.431 51.3608 227.302 50.43 227.91 49.2562C228.559 48.042 228.883 46.6458 228.883 45.0674C228.883 43.5294 228.559 42.1736 227.91 41C227.302 39.7858 226.431 38.855 225.298 38.2074C224.164 37.5194 222.869 37.1754 221.41 37.1754C219.992 37.1754 218.715 37.5194 217.583 38.2074C216.448 38.855 215.557 39.7858 214.909 41C214.302 42.1736 213.998 43.5294 213.998 45.0674C213.998 46.6458 214.302 48.042 214.909 49.2562C215.557 50.43 216.428 51.3608 217.521 52.0488C218.655 52.6964 219.952 53.0202 221.41 53.0202ZM206.524 72.0218V30.4368H214.484V38.1466L213.147 45.2496L214.422 52.3524V72.0218H206.524ZM239.227 55.2056L254.778 34.9898H264.377L248.826 55.2056H239.227ZM239.227 59.7588V55.2056L245.545 52.838H264.013V59.7588H239.227ZM240.32 37.3574V30.4368H264.377V34.9898L257.999 37.3574H240.32Z" fill="#EFFBFF"/>
</svg>
